<svg xmlns="http://www.w3.org/2000/svg" viewBox="0 0 512 512">
  <style>
    path {
      fill: #231f20;
    }
    @media (prefers-color-scheme: dark) {
      path {
        fill: #f5f5f5;
      }
    }
  </style>
  <path fill-rule="evenodd" d="M447.8 370.9h1.4v-.5h-1.4zm8.2-.5h-1.3v.5h1.3zm31.7.5h1.3v-.5h-1.3zm-84.4-10.6h-.4v1.4h.4zm-1.8-1.4h.5v-1.3h-.5zm63.7 12.4h-.5v1.4h.5zm-171.4-65h1.4v-.5h-1.4zM482.2 371h2.7v-.7h-2.7zm-7.3-1h-.6v2.7h.6zm-23.9.7c-.4 1.7-.4 1.7 3.4 1.5l-3.4-1.5m40.7.8l2.7-.5-2.3-4.7-.4 5.2m-47.2-.4l-1 1 .5 2 3.4-.6-3-2.4m-47.7 4.4a540 540 0 01-1.6-2.9l-2.9 2.6 4.5.3m-58-17.5l2.8-2 2.3-2.5c-3.5-.2-4.3 1.3-5 4.5m122 14.1l-3.1-4.2v5l3.1-.8m-52.8 1.5l-2.2-2.4-2.4 5.3 4.6-2.9m-74-28.2c2.5.8 5.2 1.6 7.7 0zM479.5 373l1.3-.7-.7-4.6-3.7 3 3 2.3m-196.9-27.7l.5 2.3h6.7l-.4-2.3zm52.8 11.2c.7-3 3.5-3.1 2-5.5h-5.8l3.8 5.5m-54.3-16.3l-.9-1-2.6 3.7 1.8 3.6h1.7zm-23 1.6c-1.8-.5-.4-4.5-4.2-3 .2 2-.4 4.3 1 7.3l3.1-4.3m190 17.4v1.1h19.7c.2 0 .4-.3.5-.5v-.6zm-271.3 25.5c3.3-4 7-1.3 9.7-2.8-4.2-4.7-4.2-4.7-7.6-4.8-.5 1-1.2 1.8-1.5 2.8-.3 1-.3 2.1-.6 4.8m202.2-14.5h-5.5l-3.2 7c3.8-2.6 7-1.4 9.9-1.8.6 0 1.1-.3 1.6-.5l-2.8-4.7m-120.7-23.9h18.4l-2-2.3h-16.4zm112.6 17.9l-2 5.7h-2.5l-2.5.4c.4 2.4 1.4 3.8 3.5 3.7 1 0 2.4-.6 2.7-1.4 1.3-3.2 3.2-6.5 2-10-.9-3-2.8-5.5-7-6.1 1.4 3.3 5.4 4.3 5.8 7.7m-158.9 11.2c-1.3 2.2-4.6 3-4.8 7.2l15.4-2.1c-1.3-.8-2.4-1.3-3.3-2.1-1.2-1-2.2-2.1-3-3zm66.7-37.7c-7.8 2.2-13.8-2.3-20.9-.2l2 3.2 16 1.3 3-4.3m1.5 42c5-.6 10.2 1.2 14.8-2l-3.5-4.9H287l-6.9 6.9M123.5 382h21.2c-7-5.7-14.3-3.3-21.2-4zm166.7-106.9l-1.9 10.3 6 2 2-1.7v-10.6zm154.7 81h-7.4c-3 0-6.2.8-8.8-.2-5.5-2.1-11-.6-16.5-1.3v2.9h7.4c2.5 0 5.3-.8 7.4.1 6 2.4 11.9.5 17.9 1.4zm-183 23c-2.6-.6-2.5-3.8-4.4-5-10.1-.3-10.1-.3-15.5 6.4 6.6 1.7 13-1.4 20-1.5M351 377c3.8-.3 7 .4 10.3-.7a7523 7523 0 00-4.8-9.2l-4.1 4H347l1.9-4.5-5-2.3c-1.8 3.4.2 5.8 1.2 8.4l7.7 2.1-1.8 2.2m-100.6-34.5h-27.3c-.3 0-.6.7-1.2 1.3l2.3 2.9h27.4c.3 0 .6-.7.9-1 0-.4 0-1-.2-1.2-.4-.6-1-1-1.9-2m-94 25.8c4.4 0 4.4 0 5.3-3 .7-2.5 1-5 2-7.4a88 88 0 005-19c.2-1.6.7-3 1.3-4.8-2.8.4-3.7 1.5-4.2 3.5a301 301 0 01-4 14l-5.4 16.7m66-30.6c4.9 2.7 9.6 2 14.3 2l6.8.1c1.1 0 2.2.2 3.3.5 4.7 1.3 5.4.7 5.2-4.4-8-.5-16-1-24-1.7-1.4 0-2.8-.9-4.2-1.3-.4 0-.8.2-1.4.4zM141.9 370l12.7-38-3.5-1.7-5 15c-2.6 7.4-5.2 14.8-7.6 22.2-.2.7.1 1.7.2 2.5zm146.9-34.5c-.8-2.4-1.2-4.2-1.9-6-1.7-4.6-3.1-9.3-9-10.5-1.8-.4-3.3-1.9-4.9-2.8-3 2.7-8 1.3-9.5 6.1-1 3.5-4.7 6.2-4 10.5h3.4l4.8-9.3c3.4.4 6.2-3.6 9.4-.2 4.5-.5 4.8 3.8 7.2 6.4v5.8zm-125.4-2.2c-4.8 0-4.8 0-5.7 3l-6.9 22.6c-1 3.2-3 6.2-2.7 9.8 0 .4.3.8.5 1.2h3.2l3.4-9c1-2.7 1.2-5.5 2.2-8.2 1.2-3.1 2.4-6.4 3.1-9.7.7-3.1 1.8-6.1 2.9-9.7m-79.7-4.4c-2.7 6.5-5 13-8 19.3-3.3 6.5-4.7 13.6-8.6 19.8-.5.8.2 2.3.4 4 2.6-1.4 4.1-2.7 5-5 3-7.6 5.9-15.3 9.6-22.7 2-4.1 3.7-8.5 5.4-12.8.3-.7 0-1.6 0-2.6zm181.5-45.5v9l14.3 4.5h4.6V288c-6.3-1.4-12-4.6-19-4.6M88.9 369.6c3.1 0 5.4-.7 5.6-1.7.8-5.4 4-9.8 5.5-14.9 2.3-7.7 6-14.9 8.6-22.5l1.3-3.9c-2.9-1.5-5.2-.3-5.5 1.4-.4 2.8-2.1 4.7-2.9 7.1-3.6 11.5-8.5 22.5-12.6 34.5m4.5-42.1c-.1 1.2.2 2.5-.4 3.3-3.6 5.4-5.2 11.6-7.6 17.4-2.6 6.7-5.8 13.2-7.8 20.1-.1.4-.5.8-1 1.5h5.3l3.8-9.5c4.3-10.3 8.2-20.8 12-31.3.2-.5.6-.8 1-1.5zm49.7.1c-1.5 1.5-3 2.4-3 3 .4 3.8-3.7 6-3 9.8-4 8.6-5.9 18-9.5 26.8-.3.7 0 1.7 0 2.6h4.8l13.4-38.6-2.7-3.6M314.4 378c-.5-.6-1-1.1-1.2-1.7-1-1.8-2.5-3.7-2.8-5.6-.4-3.2.1-6.5-.2-9.6-.3-3.3-1-6.5-1.7-10.2l-2.6-4h-6a29.4 29.4 0 00-3.5 14.2c0 5.2.6 9.7 5.1 13h4c1-.8 1.8-2.1 3.4-2.6v1.2l-4 5.3zm-63-46.5c-.5-9.8-3.7-17.4-11.1-21.3-10.6-2.6-16.5 1.8-20.4 9.4l1.6 5c5-4 8.4-11.2 16.3-9.5 6 4 8.6 10 9.7 16.4zm-13.4 44c10.3-5.3 10.7-15.7 14.4-24.7-4.7.4-4.8.6-5.4 3.8-.2 1.3-1 2.4-1.2 3.6-1 4.8-4.8 7.3-7.6 10.4h-8.3c-4.7-4-7.7-8.9-7.8-15.3l-2.3.5c-1.6 5.3 2.5 9.3 2.6 13.8l7.5 8zm46.3-18.2c-2.5 5.7-4.4 10.8-10.6 10.7l-4.7-1.2-5.6-8.6v-7.5l-4 .3c0 8.7 1 9.9 3.7 16.8 2 5 6.7 3.9 9.7 6.4 2.9-.8 5.8-1 8.3-3 6.4-5.3 6.9-12 8-18.9h-4.8zm-166.8-31L101.4 367c-.3.8 0 1.7 0 2.8h5.5l16.3-43.7zm10.8 1.3c-5 14-9.6 28-15 42.4H120c5.3-14 10.3-28 14.7-42.4zm54.4 30.3c.1 7.2 5.3 14.7 8.3 17 1.4 1.2 3.5 1.7 5.3 2 2.5.2 5 0 7.4 0 8.2-4.4 10.4-12 11.9-20.4h-4c-.7 5.5-3.6 10-8 13.5h-5.8l-6.2-5.2-2.2-6.9zm300.6-3c-4-.5-8-2.6-12-.8v3.7h12.4l-.5 2.7c-4-.6-8-2.6-12.3-1l.7 2H486v-16.3l-5.1-1.9v-6c1.9.4 3.8 2.4 5.8-.4-5-3.5-10.3-4.6-15.4-6.3v19.7l1.7 1.7c6.1.2 6.1.2 10.2 2.8m-260.5-74.6c4.9 1.3 10 2.4 14.7 4.1 4.4 1.6 8.9 2.9 13.2 4.5 3.5 1.4 7.4 2 10.9 2.8.6-2 1.5-4 1.5-5.8 0-1.7-1-3.4-1.4-4.9h-3.4l-.6 6.9-2.4-.7c1.3-1.2.9-1.9.2-3.2-.7-1.1-.2-3-.2-4.3-4-1-7.5-2.3-11-3.3-3.6-1-7.6-2.2-11.2-4.3-3.4-2-7.5-4-12.2-3.7.1 2.5 0 4.5.4 6.5.3 1.8 1 3.6 1.5 5.4m245.4 50L448 325v22.6l20.2 3.9c-7.7 1.8-13.9-2.6-20.3-.3v3.3l20.3 2.5zm-273.4-15c0 6.7.2 12.9 0 19-.3 6-1 11.8-1.5 17.8h18.1c5.8-2.8 5.2-8.4 6.3-12.7 2-7.1.2-14.3-3-21.3-6.2-.6-12.5-3.6-19.9-2.8m216.1-.4v27.5c11.1.8 21.9 2.7 32.5 5.3-11 .1-21.6-1.8-32.4-3.4v6.5l33.9 3.6v-29.3c-11.1-4.2-22.3-7.3-34-10.2m-24.4 33l-2 .2c-2.7 0-5.5.2-8.2 0-2.8-.2-5.6-1-8.4-1.3l-20.7-1.5c-.6 0-1-.7-1.6-1l-1.3.7 2.2 3.1h9.8c3 .3 6 1 9 1.4 4.2.5 8.6-1 12.5 1.4 8.4-1 16.5 1.7 24.9 1.3.3 0 .7-.4 1-.6l-4.3-2.8v-7c-17.2-2.8-34-4.5-51-7.7l.9-2.5c2.9 0 6.2-1 8.2.3 2.8 1.6 5.6 0 7.8 1.3 2.6 1.3 5 1 7.7 1.2 1 0 2.2-.3 2.7.2 2.1 2.2 4.8.5 7 1.2 2.3.7 4.5 1.6 7 1.4 1.7-.1 3.5-.5 5.1 1 .9.8 3 .2 4.7.2V318c-4.6-1.5-9.1-3.4-13.9-4.4a6.8 6.8 0 01-4.8-3.3c-3.4-6.1-8.3-11-12.8-15.4l-23-8.6-1.7 1.8 3.7 4.5.9-.9c7.3 3.5 15.5 4.8 24 9.5-3.6-.2-5.9.4-7.5-.5-5.2-2.7-11.2-2.5-16.5-5-1.8-.8-4.6-.6-6.1 2.6.4 3 1.2 6.8 1.4 10.5.3 4 .1 8.2.1 12.3v19.2l4 2.1c5.5-1.2 11.3 2.3 17.4 1.3h.6c3 2.3 6.8.3 9.7 1.6 3.4 1.5 6.6.9 9.8 1.2.4 0 .8.4 1.7 1m-69 26.5h5.9c.2 0 .7 1 .6 1.3-.2.9-.7 1.7-1.2 3l19-2-3.5-5-6.2 4.3-6.7-4.9c-.2-4.8 2.1-8.4 1.5-12.6-.7-4.1-1.5-8-5.2-10.2-1.1 0-2-.3-2.5 0a12.2 12.2 0 00-4.7 9.7c-.2 3.8 0 7.7 0 11.2l3 5.2m73.2-2.8h-4l-.8-1c-2.3-5.5-2.1-6.3 2.7-10.7.3-.3-.1-1.2-.2-1.9l-4.2 2-1.4 11.2 5.4 2.9c.9-.8 1.4-1.3 1.7-2.6l.3.3 1-1-.3-.4c-.4.3-.7.7-.2 1.2m33.8 0l-.4-5.3a9.6 9.6 0 01-3.5 5.7l.4 1.2c1.2-.5 2.3-1 9.6-3.1-1.5.2-3.2 0-4.5.6-1 .6-2.9 1.6-1.4 3.3h7.8c-.6-1.2-1-2.2-8-2.5m-22.6-1h-5.5l3.7 3.3 3.9-6.9c-1 1-1.6 1.2-1.5 1.4 0 .7.3 1.3.6 2 .2-.9.4-1.7-1.2.2m13 2.7l-.5-5.7c-.8.9-.8 1.7-1 2.5l-1.2 2.7c.7.2 1.3.3 4.6-2.6-.3.9-.5 1.7-.9 2.4-.2.5-.7.8-2 2l5-.4c-.8-1.5-1.4-2.7-4-.9m-40.1-11c0-.2.2-.2.3-.3l-1-1.2-.4.5c.3.3.7.6.9 1 1.5 2.1 3.6.8 5.2 1l.4-1h-5.4m62.7 8.7l-.8.7.2 2.7 2.7-.1c-.9-1.3-1.5-2.3-2.8-3l-.2-2.8c-1.4 1.7-3.7 2.2-2 4.5l2.9-2m30.8.9l.3-.3-1-1.1-.4.4c.3.3.7.6 4.6 2.4-1-1-1.3-1.6-1.5-1.5-.6 0-1.3.3-1.9.6.8.2 1.7.4-.1-.5m-26.2-1.7l.3.3 1.1-1-.4-.4c-.3.4-.6.7-.7 1.4l-.2-.3-1.2 1c.2 0 .3.2.5.4.3-.4.6-.8.6-1.4m-164.8-68.6c-.9-2.6-4.2-.6-5.3-2.8-6.4.2-11.9-4-18.2-4-4-4-10.4-1.5-14.3-5.6l-.9 1c-3.4-1-6.8-2-10.8-3l-2-2-1.1 1c-2.8-.9-6.1-1.2-8.6-2.8-3-2-6.5 0-9.5-2.3-1.5-1.2-4.1-.9-6.1-1.6-1.2-.3-2.1-1.3-3.6-2.3l3-3.4 19.3 5.5v-11.6l-5.1-2.3c-.2 3.3 2.8 5.8.8 8.6l-1.8.2-.4-3c-.9-3.1-1-6.7-5.7-6.8-.9 0-1.7-1.8-2.6-2.7l2-1 .7.2c5.3.9 9.6 4.6 15 5.4 1 .1 2 .7 3 .9.9.2 2-.3 2.7 0 4 2.8 9.4 1.8 13.5 4.6 4.3 3 9.5 4.1 14.4 4.8 6 .8 11.4 3.6 17.2 5 3.7.7 7.2 2.3 11 3.7l.4-2.3-16.5-5.3c-1.2-.4-2.5-.7-3.7-.8-1.9-.1-2.8-1.2-3.3-2.8l2-.9 21 7.6 1-8.3a15.8 15.8 0 00-7-7.1c-4.1-2.1-7.7-5.2-11.5-7.8 4.2-1 8.5-1.6 12.8-2.2 5-.8 10-1 15.2.4 4.8 1.2 9.2 3.4 13.9 4.9 3.2 1 6.1 3.9 9.6 5 7.6 2.2 14.2 6.5 21.8 10.9l-5.8.3c-6.3-3-11.7-5.9-17.4-8.2-5.5-2.3-11.5-3.3-16.9-7.1l-.2 6c0 2.3-.7 5 .2 6.8 1 2 1.3 3.7 1.1 5.7-.1 2.2.6 4.3-.6 6.6-.9 1.6-1.4 4.6-.5 5.7 1.7 2.2 1.1 4.4 1.1 6.5 0 2 .5 3.8-.7 5.9-.8 1.4.6 4 .7 6 .2 2 0 4.1 0 6.2V329.2c-2 3.4-5 1.8-8 2.4v8h-9.4l-.5 2.2c2.8 1.7 6.4-.6 9.4 2.1l2.8-3.7c12.8 2 25 1.4 37 5l.5-2.3-35.7-4.8-2.3-4.1c4 .8 7-1.1 9.8 1.5.2.3.9 0 1.3 0 3.4-.1 6.6.5 9.8 1.3 3 .8 6 .1 9.1 1.3 2.2 1 5 .2 7.7.2v-50l5.6-2.2v-6.8c4.7-.6 8.6 1.4 12.7 2.7 4 1.3 7.8 3.2 11.6 5.1 4.1 2.2 7.3 5 10.3 8.2 3.1 3.2 5.8 6.7 8.6 10 5.8.4 11.1-1.8 16.8-1.5 7.2.2 13.7 2 20.4 4 6.3 2 12.8 3.4 19 5.8 1.7.7 3.8 1 5.2 2.2a16 16 0 009 3.5c4.5.6 9.2 2 13.3 4 7.8 4 16 7 24.3 9.6 3.4 1 6.5 3 9.7 4.7.2.1 0 .9 0 1.8-1.1-.4-2.1-.9-3.2-1-1-.2-2.2 0-3.4 0v23h5.1l.4-6.6c1.3 4 1 8 1.2 12l-2.7.6-.1 3.8h16c.5 1.6-1 1.9-1.4 2.7-5.5.5-11 1.2-16.6 1.5-5.7.2-11.6-.9-17.1.2-9.7 2-19.5 0-29 1.4-10.2 1.5-20.4 0-30.3 1.4-9.6 1.5-19 0-28.4 1.3-10.6 1.6-21.3 0-31.7 1.5-9.5 1.4-19-.2-28.3 1.3-10.8 1.8-21.8-.2-32.4 1.4-9.8 1.5-19.5 0-29 1.3-10.6 1.6-21.3 0-31.7 1.5-10.2 1.5-20.4 0-30.4 1.3-11.8 1.5-23.6 0-35.2 1.5-12 1.5-24 .4-35.9 1.1-2.3.1-4.6 1-7 1.3-1.3 0-2.7-.8-4-.8-1.5 0-3 .8-4.4.8H53.7c-3 0-6-1-9-1.3-3-.2-6.3.8-8.9-.2-5-2-10.2-.8-15.3-1.2L0 387.4c2.1-1.1 3.3-2.3 4.5-2.3 12.2.2 24.3-2.3 36.5-1.5 4.8.4 9.7 0 14.5.1 5.1.2 10-2 15.2-1.5 5 .5 10 0 15-.1.2 0 .4-.3.8-.7l-2.2-3.4c-10.2 1.3-20.2-2-30.4-1.2l-.8-.7c1-4 4.6-4.4 7.9-5l17-41c-2.8-.2-3.4 1.3-4.2 3-3.8 8-8.6 15.6-11.4 24.1-1.3 3.8-3.4 7.4-5.4 10.9-.5 1-2 1.4-3.4 2.4-1-3.9.8-6.5 2-9 2.5-5.5 5.2-10.8 7.7-16.1l8.1-17.8c8.4-3 17.7-4.4 26.8-5.5 9.3-1 18.9-4 28.4-.3 3.2-3.5 2-7.8 2.3-12.1h-20l-3.3 9.2H93.2c2.3-4.7 4.4-9.2 6.8-13.5 2.3-4.3 5-8.5 7.7-13.2 3.9 3.7 8.2 5.6 12.7 6.8 1.5.4 3 .5 4.5.8 2 .4 4-.8 5.8 1 .5.6 2.1.3 3.2.1.5 0 1-1 1.5-1 6.3 1 11.4-2.6 16.9-4.3 3.1-1 5.9-3.4 9.5-5.5-.3 1.6-.2 3-.7 4.2-2.4 6.6-5 13-7.5 19.6l-4 10.4c.8.4 2 1.5 3.1 1.6 7 .5 13.6 2.6 20.3 4.2 1 .3 1.7 1.3 2.4 1.8-.4 5.6-3.7 10.1-4.1 15.7-.3 3.9-2.3 7.7-3.5 11.6-.3 1.2-.3 2.6-.5 3-1.6 4.6-2.8 8.5-4 12.6l2 1.9h7c5.9-5.2 5.7-12.3 7.5-19H176c-1.4 2.8-.4 5.7-1.2 8.6-1 3.5-2.7 5-5.5 6.2l-2-1.9v-8.4c4-1 5.2-4.6 6-8.6h11c1.3-1.8 4.1-2.5 3.6-5.7a8.5 8.5 0 00.7-8.3l-1-2.2-3.6-1.8c-2.3 0-6 2.9-6.8 6-.7 3.2-.8 6.5 1.8 10l-6 .6c-.5-3.8 1.3-6.8 2.2-10 .7-2.4 2.2-4.6 2.8-7 .5-2.4.3-5 .5-7.9h2.6c1.7 2.8 4.3.6 6.5 1.6.6-3 1.6-5.5 1.6-8 0-2.3-1.1-4.5-1.9-7.1H184a17 17 0 016-12.6c5 0 10-.2 15 0 3 .2 6 1.1 9.1 1.3 3.2.2 6.8-.8 9.5.3 3.4 1.3 6.6.7 9.8 1.2 5 .8 10 1.5 14.5 3 5.2 1.8 10.5 2.3 15.7 3.8 8.8 2.6 18.1 3 26.7 6.7 1.3.6 3 .1 4.8-.8-3.3-1-6.4-2.4-9.8-3-5.4-1.1-10.7-2.9-16.1-4.1-5.4-1.3-10.8-2.5-16.2-4.1-5.1-1.6-10.7-1.6-16-3-3.9-1.2-8-.5-11.7-1.5-6-1.6-12.3-.1-18.6-3.5l4-.4h13.1c4 0 7.8 1.3 11.8 1.6 4.7.3 9.4 1.6 14 2.8 4.4 1.2 9.4 1 13.4 3.8 9.4 1.1 18.2 4.9 27.3 7 1.5.2 2.8.9 4.3 1.5l.8-2.5-22.9-6c-7.9-2-15.9-3.5-23.6-6-3.1-1-6.4-.6-9.4-2-1.8-.9-4.2-.8-6.3-1.5a36 36 0 00-13.1-1.5c-2 .2-4 .4-5.5-1.2-1.6 2.5-3 .4-4.5-.1-.6-.2-1.4-.3-2 0-4.3 1.9-8.8 1.2-13.2 1.4-.9 0-1.7.7-3.3 1.4 1.7-4.8 6.8-7 6-12.2 6.4-1.2 12 1.9 17.8 3 5.5 1 10.6 3.6 16.3 3.7 2.1 0 4.5.4 6.3 1.4 5.1 2.6 11 2.2 16.2 4 5 1.9 10.3 2.8 15.4 4.2 2.6.7 5 1.5 7.7 1.3.5.5 1 1.2 1.6 1.3 1.3.2 2.6 0 4 0 .4.5 1 1.3 1.5 1.4 1.3.2 2.6 0 4 .1 1.7 1.4 1.7 1.4 4 .1h-4c-.6-.6-1.1-1.4-1.7-1.5-1.3-.2-2.6 0-3.9 0-.5-.5-1-1.2-1.6-1.3-1.3-.2-2.6-.1-3.9-.1"/>
  <path fill-rule="evenodd" d="M182.5 217.9c0-2 .4-3.6-.1-4.5-2-3.2-1.2-6.5-1.3-9.8V185l-3.4-3.4c-3-.3-6-.2-9.1-1.1-3.5-1.1-7.7-.3-11.6-.3l-2.2 2.2c1.2 7.8-2.8 15.6-.8 23.7 5.4 2.3 11.2 3.8 16.4 6.7 2.3 1.3 3.8 0 4.7-1-2.2-9-.4-17.2.6-25.5 0-.2.3-.4.6-.6l1.6.2c.6 4.4 1.5 8.5 1.7 12.6.3 4.5.1 9.1.1 13.7v3.1l2.8 2.6M169 250.5c-.6-5.5-1-11-1.8-16.5-.3-1.9-1.4-3.6-1.8-5.5-.5-2.2-3-2.6-3.7-4.5-2-5-6.3-8-9.9-11.6a15.9 15.9 0 00-5.5-3.3c-5.1-1.9-10.3-3-16-2.9-5.8.3-10.7 2-15.8 5.1-12 7.6-16.6 19.3-18.5 32.1-1.1 7-1 14.3 1.1 21.4a40.1 40.1 0 007.8 16c9.6 10.6 22.1 11.7 35.3 10.7 1.7 0 12.2-5.3 14.2-7a50 50 0 008.8-11.5c4.2-7 6.1-14.4 5.8-22.5M166 216c.4 1 .5 2.1 1 3 3.7 5.8 7.3 11.7 7.4 19 0 1.6.9 3.2 1.3 4.9.3 1.7-.8 3.6 1 5 .3.3.5 1 .3 1.3-2.9 5 .6 11.2-3.1 15.8-1.6 2-.4 3.9-1.3 5.7a41.3 41.3 0 01-17.7 19.5c-2.7 1.4-5.4 2.6-8 4.2-3.2 2-7 1.6-10.5 2.4-3.2.7-7 1.2-10.6-.6-1.7-.9-4-.5-5.8-.7-3.1-2.5-7.4-2.5-10.3-5.3-3.7-3.6-7.4-7-11-10.8-4-4.2-4.3-10.1-6.9-15 1-5-1.6-9.6-1.4-14.6.1-3.3 1.9-6.2 1.6-9.7-.3-3 .2-6.2 1.3-9a44 44 0 0124.4-26.6c5-1.9 10.2-4 15.7-3.6 3.6.3 7.2 1.4 10.8 2 1.6.4 3.3.6 5.4.8 0-5-.2-9.6 0-14.1.2-4.4.6-8.7.9-12.5 7.8-5 15.8-4.3 23.4-3.5a22 22 0 0114.2 6c-.7 12.2 2.4 24.5 1.3 37v2l3.8 4.8c1.5-.8 2.6-1.7 3.7-1.8 3-.2 6.2-.7 9 1.2 4 2.6 9.1 3.3 12.4 7.9v4c4.8 2.3 10.3 2.3 14.1 5.6 4.3-2 7 2 10.6 2v3.2l6.8 3.5c6.5-.4 13.4.2 16.6 8.2-3 .3-5.6-.3-8.1-1.9-4.7-3-10.3-4-14.7-7.6-.7-.5-2.7-2.2-4.2-.3-1.6-1.1-3.1-2.4-4.8-3.4-1.4-.8-3-1.4-4.7-1.9-1.6-.5-3.6-.5-4.8-1.5-5.2-4.2-11.6-5-17.6-7.3-3.6-1.3-5.9-5.2-10.2-5-4.5-3.5-10.3-3.6-15.3-6.3-4.3-2.3-9.2-4.1-13.9-6-.6-.2-1.4 0-2.1 0l.2-.2-1-1-.4.3 1.2 1M150.4 161.2l-2.3-2.3c-.5-5.4 2.2-10.3 5.4-14.8 1.7-2.6 4.2-4.8 6.7-6.9a39.9 39.9 0 0120-7.8c3.5-.5 7 .4 10.6-1.2 1.7-.8 4.6 1.1 6.9 1 5.3 0 10.4 1 15.3 2.9 7.8 2.9 15.1 6.4 21 12.4 4.2 4.2 8.9 8 12.5 12.7 3.8 4.8 8 9 12.3 13.4a159.6 159.6 0 0037.4 27.4c8 4.6 16.5 8.8 24.9 13.3-2 .7-3.5.3-5.7-.3-9.8-2.8-19-7.1-28-12a116.6 116.6 0 01-29.7-21.1c-8.2-8.6-17-16.8-25.2-25.4a60.8 60.8 0 00-27-15.8 42.9 42.9 0 00-17.1-1.6c-4.7.6-9.6.9-14 2.6a40.4 40.4 0 00-24 23.5"/>
  <path fill-rule="evenodd" d="M177 327c-6.8-2-12.8-4-19.3-6.1l10-29a11 11 0 012.4-3.8c3.8-4 7.8-7.7 11.6-11.6 1.5-1.6 3.2-2.1 5.9-2.2l2-3.2h5.3c-7.1 18.5-11.7 37.5-18 56M206.6 176.3l-14.8-2.1c.6-1 .8-2.4 1.5-2.7 3.8-1.2 7.4-4.2 11.6-1.1 8 .7 13.4 6 18.9 10.8 7.6 6.4 15.1 10.4 26.4 15.8 9.5 4.4 19.4 7.4 29 11.6 8.4 3.7 17.6 5.9 26.5 8.7l30.4 9.7c2.4.8 4.6 2 7.8 3.5-1.9.3-3 .8-4 .5-5.7-1.2-11.4-2.3-16.8-4.1-5.9-2-12.3-2.1-17.7-5.4-5.4.1-9.9-2.9-14.8-4.2-8.6-2.3-17-5.2-25.5-8.1-14.6-5-28.6-11.6-39.4-19.4l-15.3-11.1c-1.2-1-2.5-1.6-3.8-2.4M90.8 283.4H98l6.1 6.5c-2.2 4.7-4.4 9.7-7 14.6-2.3 4.8-4.8 9.4-7.4 14.2l-16.2 3.4c4.7-14 8.8-27.3 17.3-38.7M165.6 288.5c.5-2.1.4-3.1.9-3.6 3.3-3 5.7-6.8 7.5-10.6.9-2 4.5-2.4 3-5.5 2.2-1.8.5-4.5 1.5-6.3 1.3-2.3.9-4.7 1.3-7 .7-4.6 2-9.2 1.2-13.9-.6-3-2-5.8-.8-9.5 2.8 3.8 5 7.1 5 11.7.2 4.2 1 8.3 1.4 12.5.5 6.2-2.1 11.4-5.2 16.4a22.2 22.2 0 01-8.6 8.8c-2.4 1.2-4.1 4-7.2 7M322.9 285.5l-12-3.5-1.8 3.5v7.3c5.5 1.2 10.2 4.5 16.2 4.2v-7.5l-2.4-4m3.7 16l-18.3-5.7c-2.6-5.1-2.2-10.5-2.1-15.6l2.5-2.8c5.7 3.9 13.4 3.6 17.9 9.1zM126 310.8v3.9h-14.8c0-3.8 0-3.9 2.5-3.9H126M203.6 253l8.2 2.8-3.2-7c6 .9 3.2 7.3 7.5 9.3-6 1.5-9.3-2-12.5-5M240.2 266.8a34 34 0 01-19.3-6.8 34 34 0 0119.3 6.8M181.7 338.2l4.1.3-4.8 3c.5 3.2-1.2 6.8 1.9 10-5.7-3.3-6-6.4-1.2-13.3M181 327.3l-1.3-6.9c3.4-2.5 3.4-2.5 6.5-2.1l-5 3.9 2.6 5.1zM183.6 349.8l2-3 1.8-3c1.8 3.7-1.2 5-3.8 6M255 268.8l-4.5-7.2c4.4 2.5 4.4 2.5 4.6 7.2M221 259.7h-4l1.8-4 2.1 4M256.7 272.3c-1.4-.5-3.5 1.3-4.1-1.3l3.8-1 .3 2.3M498.3 348h-.7v-5.6h.7zM495.6 346.6h-.7V341h.7zM248.4 269.6c1.4.5 3.5-1.3 4.2 1.4-1.4-.6-3.5 1.2-4.2-1.4M204.4 261.3c-1.3-.5-3.4 1.3-4-1.3 1.3.5 3.4-1.3 4 1.3M256.7 272.3c1.3.6 3.5-1.2 4.1 1.4-1.3-.5-3.5 1.3-4.1-1.4M244.3 268.2c1.4.5 3.5-1.3 4.1 1.4-1.3-.5-3.4 1.3-4-1.4M240.2 266.8c1.3.6 3.5-1.2 4.1 1.4-1.3-.5-3.5 1.3-4.1-1.4M195.4 258.8l-3.3-1c.6-.2 1.2-.5 1.9-.5.2 0 .5.4 1.4 1.5M197 258.4c1.7.4 2.5.7 3.3 1l-1.9.5c-.2 0-.5-.5-1.4-1.5M185 326.5l1-3.3.5 2-1.5 1.3M186.4 323l1-1 .4.4-1.1 1c0-.2-.2-.2-.3-.3M192 257.3l-1.2-1c.2 0 .3-.2.5-.3l1 1-.3.3M386.2 348.1h8c-4.3 1.7-5.3 1.7-8 0M417.5 331.3l-3.9-1.6v-10.3c2.3-.5 4.2-1 4 2.4-.2 3.1 0 6.2 0 9.5M420.4 322h3.7v9.2h-3.7zM429.6 323.2v9.4H426c0-1.7-.4-3.7-.1-5.6.2-1.3 1.3-2.6 2-3.8.2-.2 1 0 1.7 0M432.9 324.7h2.3v9.4h-2.3zM437.7 324.4l.8 2.4.8-.6v9.1l-.6.5-1-2.5-.7.6v-9l.7-.5M441.1 327.4h2.3v8h-2.3zM211.7 326.7c4 6.4 2.3 12.3.7 18.1-4.7 3.3-4.7 3.3-13.2 3l-.4-2 8.4-2.5c3.2-4.4 3.8-10 4.5-16.6M460.4 331.6h3.6v7.4h-3.6zM451.7 336.8h-2.3v-8h2.3zM455.8 338.5c-3.9-2.5-2-5.5-2.6-8.3h2.6zM457.6 338.1v-8.5c2.1 3.2.5 5.9 1.4 8.4l-1.4.1M465.9 340.8v-7.7l.7-.1.4 4v3.8H466M473.6 342.4h-.7v-8.2h.7zM476.4 335.8v8c-1.8-3.6-.7-5.9 0-8M479 342.4h-.6v-6.8h.7zM324 369.3l-2.5 2.3-2.7-2v-15.5l2-3.5c.8.2 1.4.2 1.6.5 1 2.4 1.9 4.8 1.7 7.6-.2 3.4 0 6.8 0 10.6M324 374l.9-1.2.4.4-1.1 1-.3-.3M304 371.4l-3.2-4.8v-14.2l3.9-2.5c2 2 3 4.8 3 8.3-.3 6.3-1 9.6-3.6 13.2M140 219.9c6.6 1 10.3 4 13.6 7.2 3.3 3.2 5.5 7.5 8.2 11.4v14.3c0 5.3-1.7 10.4-3.5 15-1.4 3.9-3.8 8-8.2 10.4-3.4 1.8-6.1 4.7-10 5.6-9.4 2.2-22.5 1.6-28-9.7l5.3-.4h5.5c6.7.2 12.9-2 18-6 4.7-3.8 7-9.3 8.5-15 .7-2.5 1.1-5 1.4-7.7.9-8.4-2.5-15.3-8-21.3l-2.8-3.8"/>
  <path fill-rule="evenodd" d="M127.6 260l2.8-1.4c7-3.5 10.2-9.5 7.9-16.8-.9-2.8-2.2-6-6.4-6.7-5-1-4.7-1.2-10.7 1.4a9.4 9.4 0 00-6.1 9v7.3l5.9 7.1zm4.6 4c-6.6.8-12-1-16.5-5.5a10.6 10.6 0 01-3.4-8.2c.2-4.1-.1-8.2 2.7-12 2.5-3.2 8.8-7.8 12.7-7.1 5.5 1 10.6 2.9 13.6 8.6 2.5 4.5 3.7 8.5 1.4 13.4-1.5 3.2-4.4 7-8.7 9.5l-1.8 1.3M106.6 265.8c-3.2-3.8-3.2-3.8-.3-7.2 4.4 2.7 4.5 3.3.3 7.2M108 239.6v5h-5c-.2-1.4-.2-3.1-.3-5zM115 230.5l-6.3-2.9 4-4.6c3.2 1.2 2.3 3.8 2.3 7.5M125 221.2c-.8-2.6 0-4.4 2.5-5.3 2.5 1 3.2 2.7 2.4 5.3z"/>
  <path fill-rule="evenodd" d="M118.9 254.6c-3-3.4-2.9-7-2.2-10.7.8-3.9 5-4.5 7.1-7.1h7.5c-3.5 1.8-7.6 2-10.3 5.5-2.8 3.6-1.2 8-2.1 12.3"/>
</svg>
